<svg xmlns="http://www.w3.org/2000/svg">
  <symbol id="as-logo" viewBox="0 0 351.3 116.4">
    <path fill="#115FA4" d="M70.5,63.6c-1.2-0.7-2.7-1-4.3-1c-2.2,0-4,0.8-5.2,2.5c-1.3,1.6-1.9,3.9-1.9,6.7v15.9H48.7V54.3H59v6.2h0.1c1.6-4.5,4.6-6.8,8.8-6.8c1.1,0,1.9,0.1,2.5,0.4V63.6z"/>
		<path fill="#115FA4" d="M99.2,85.6c-2.3,1.3-5.7,2-10.1,2c-5.1,0-9.3-1.6-12.4-4.7c-3.2-3.1-4.8-7.1-4.8-12c0-5.7,1.7-10.1,5.1-13.4c3.4-3.3,7.9-4.9,13.6-4.9c3.9,0,6.8,0.5,8.5,1.6V63c-2.2-1.6-4.6-2.4-7.2-2.4c-3,0-5.3,0.9-7,2.6c-1.7,1.7-2.6,4.1-2.6,7.2c0,3,0.8,5.3,2.5,7c1.7,1.7,3.9,2.5,6.8,2.5c2.6,0,5.1-0.8,7.5-2.4V85.6z"/>
		<path fill="#115FA4" d="M135.1,87.7h-10.3v-19c0-4.9-1.8-7.3-5.3-7.3c-1.8,0-3.3,0.7-4.4,2.1c-1.1,1.4-1.7,3.1-1.7,5.2v19h-10.3V38.3h10.3v21h0.1c2.5-3.8,5.9-5.8,10.3-5.8c7.6,0,11.3,4.6,11.3,13.7V87.7z"/>
		<polygon fill="#115FA4" points="34.7,87.7 46.1,87.7 29.5,40.9 17,40.9 0,87.7 11.4,87.7 11.6,87.7 23.1,54.5"/>
    <path fill="#00833B" d="M173.8,53.8h-5.1c0-3.7-0.6-6-1.8-7c-1.2-1-4.1-1.5-8.7-1.5c-5.4,0-8.9,0.5-10.5,1.4c-1.6,1-2.4,3.1-2.4,6.4c0,3.7,0.6,5.9,1.8,6.8c1.2,0.8,4.9,1.4,11,1.6c7.1,0.3,11.7,1.2,13.6,2.7c1.9,1.5,2.9,4.9,2.9,10.1c0,5.6-1.1,9.3-3.3,11c-2.2,1.7-7.1,2.5-14.8,2.5c-6.6,0-11-0.8-13.2-2.5c-2.2-1.7-3.3-5-3.3-10.1l0-2h5.1v1.1c0,4.1,0.6,6.6,1.9,7.6c1.3,1,4.5,1.5,9.6,1.5c5.9,0,9.6-0.5,10.9-1.5c1.4-1,2-3.7,2-8c0-2.8-0.5-4.7-1.4-5.6c-0.9-0.9-2.9-1.5-5.8-1.7l-5.4-0.3L152,66c-7.8-0.5-11.7-4.6-11.7-12.1c0-5.2,1.1-8.7,3.4-10.4c2.3-1.7,6.8-2.6,13.5-2.6c6.9,0,11.3,0.8,13.4,2.4C172.8,44.9,173.8,48.4,173.8,53.8z"/>
		<path fill="#00833B" d="M205.3,55.1v32.1h-4.7l0.3-4.2l-0.1-0.1c-1.6,3.2-5.1,4.8-10.5,4.8c-7.5,0-11.3-3.7-11.3-11.2V55.1h4.7v21.4c0,2.9,0.5,4.9,1.4,5.8c1,1,2.9,1.5,5.7,1.5c3.7,0,6.2-0.7,7.6-2.2c1.4-1.5,2.1-4.2,2.1-8.1V55.1H205.3z"/>
		<path fill="#00833B" d="M211.2,55.1h4.7l-0.1,4.8l0.1,0.1c1.8-3.6,5.3-5.4,10.5-5.4c5.4,0,8.7,1.8,9.9,5.4h0.1c2-3.6,5.7-5.4,11-5.4c7.6,0,11.4,3.9,11.4,11.6v21h-4.7V65.8c0-2.8-0.5-4.7-1.5-5.7c-1-1-2.9-1.5-5.7-1.5c-3.7,0-6.2,0.7-7.6,2.1c-1.3,1.4-2,4.1-2,8v18.6h-4.7v-21l-0.1-1.5c0-4.1-2.4-6.2-7.1-6.2c-6.4,0-9.6,3.5-9.6,10.4v18.2h-4.7V55.1z"/>
		<path fill="#00833B" d="M265.3,55.1h4.7l-0.1,4.8L270,60c1.8-3.6,5.3-5.4,10.5-5.4c5.4,0,8.7,1.8,9.9,5.4h0.1c2-3.6,5.7-5.4,11.1-5.4c7.6,0,11.4,3.9,11.4,11.6v21h-4.7V65.8c0-2.8-0.5-4.7-1.5-5.7c-1-1-2.9-1.5-5.7-1.5c-3.7,0-6.2,0.7-7.6,2.1c-1.3,1.4-2,4.1-2,8v18.6h-4.7v-21l-0.1-1.5c0-4.1-2.4-6.2-7.1-6.2c-6.4,0-9.6,3.5-9.6,10.4v18.2h-4.7V55.1z"/>
		<path fill="#00833B" d="M324,47.8V53h-4.7v-5.3H324z M324,55.4v31.8h-4.7V55.4H324z"/>
		<path fill="#00833B" d="M350,55.4v3.9h-12.4v19.3c0,3.4,1.5,5.1,4.6,5.1c3,0,4.5-1.5,4.5-4.6l0-1.6l0.1-1.8h4.4l0,2.4c0,6.3-3,9.5-9,9.5c-6.2,0-9.3-2.6-9.3-7.9v-1.1V59.3h-4.4v-3.9h4.4v-7.6h4.7v7.6H350z"/>
		<path d="M10.4,97c2.7,2.8,5.8,5,9.2,6.6l-0.8,1.4c-3.5-1.7-6.5-3.9-9-6.6c-2.3,2.6-5.4,4.8-9.1,6.7L0,103.7c3.7-1.8,6.8-4.1,9.3-6.7H10.4z M15.8,103.7v1.5h-5.1v3.7h6.1v1.5h-6.1v3.9h8.1v1.5H1v-1.5h8v-3.9H2.9v-1.5h6.2v-3.7H3.9v-1.5H15.8z"/>
		<path d="M58.3,104.8v-5h-2.7v-1.4h6.7v1.4h-2.5v5h2.1v1.4h-2.1v4.3c0.9-0.4,1.7-0.7,2.5-1.2v1.5c-2.1,1.1-4.3,1.9-6.7,2.7l-0.4-1.5c1-0.2,2-0.5,3-0.8v-4.9h-2.4v-1.4H58.3z M67.5,100.6V97H69v3.6h3.6c-0.7-0.8-1.5-1.6-2.6-2.5l0.9-0.8c1.1,0.8,2,1.7,2.7,2.5l-0.8,0.9H74v1.5h-5v2c0.3,1,0.7,2,1.1,2.9c1-1,1.8-2.2,2.6-3.5l1.1,0.8c-1,1.6-2.1,2.9-3.1,3.9c1.1,2,2.4,3.7,4.1,5.1l-1,1.2c-2.1-2-3.7-4.4-4.9-7.2v7c0,1.2-0.6,1.8-1.8,1.8h-2.3l-0.3-1.4c0.7,0.1,1.4,0.1,2.1,0.1c0.6,0,0.8-0.3,0.8-0.8v-5.3c-1.4,2.1-3,3.8-4.9,5.2l-0.8-1.3c2.1-1.4,4-3.4,5.7-5.9v-4.6h-4.8v-1.5H67.5z M66.2,107.4l-1.1,0.7c-0.6-1.1-1.4-2.3-2.4-3.6l1.2-0.7C64.9,105.2,65.6,106.4,66.2,107.4z"/>
		<path d="M116,97v1.9h4.1c0,3.7-0.2,5.8-0.7,6.5c-0.4,0.7-1.2,1.1-2.3,1.1c-0.3,0-0.7,0-1.2-0.1l-0.4-1.4l1.2,0.1c0.8,0,1.3-0.3,1.5-0.8c0.2-0.5,0.3-1.9,0.3-4.1h-2.8c-0.4,3-1.7,5.2-3.9,6.7l-1.1-1c2-1.3,3.2-3.2,3.6-5.7h-3.1v-1.3h3.2V97H116zM119.7,108.4v-1.7h1.5v1.7h8.5v1.4h-7.1c1.5,1.7,3.9,3.2,7.3,4.6l-1.1,1.3c-3.6-1.8-6.1-3.8-7.5-5.9h-0.1v6.5h-1.5v-6.5h-0.1c-1.6,2.4-4.2,4.4-7.7,6l-0.9-1.4c3.3-1.2,5.8-2.7,7.3-4.6h-7v-1.4H119.7z M128.8,98.5v7.3h-6.8v-7.3H128.8z M127.3,99.9h-3.9v4.6h3.9V99.9z"/>
		<path d="M171.3,116.3h-1.5v-10.8c-0.7,2.2-1.7,4.1-2.8,5.9l-0.7-1.7c1.6-2.1,2.7-4.5,3.4-7.2h-3v-1.5h3.1V97h1.5v4.1h2.6v1.5h-2.6v1.3c1,1,2,2.1,3,3.4l-0.8,1.3c-0.8-1.2-1.5-2.3-2.1-3V116.3z M178.1,97.1c-0.2,1-0.4,2-0.6,2.9h7.5c0,7.3-0.1,11.9-0.3,13.6c-0.3,1.7-1.3,2.6-3,2.6c-0.4,0-1.2,0-2.3-0.1l-0.3-1.4c0.9,0,1.7,0.1,2.4,0.1c1,0,1.6-0.6,1.8-1.7c0.2-1.2,0.3-5.1,0.3-11.7H177c-0.6,1.6-1.3,3.1-2.2,4.4l-1-1.3c1.3-2.1,2.2-4.6,2.7-7.6L178.1,97.1z M174.6,110.6c0.6-0.3,1.6-2.6,3.1-6.8l1.3,0.5c-1,2.8-1.9,4.8-2.5,5.9c1.3-0.3,2.4-0.5,3.5-0.8c-0.3-0.9-0.6-1.7-0.9-2.4l1.3-0.4c0.7,1.7,1.4,3.4,1.9,5.3l-1.3,0.6c-0.2-0.7-0.4-1.3-0.6-1.9c-1.6,0.4-3.5,0.9-5.6,1.3L174.6,110.6z"/>
		<path d="M226.8,97v10.2c-0.1,4.2-1.4,7.3-4.1,9.2l-1.1-1c2.4-1.7,3.7-4.4,3.7-8.2V97H226.8z M223.1,99.8V111h-1.5V99.8H223.1zM240.1,97.8v1.4h-5.2v2.8h4.6v10.3c0,1.2-0.5,1.8-1.6,1.8h-1.5l-0.4-1.5l1.4,0.1c0.4,0,0.6-0.3,0.6-0.7v-8.5h-3.1v12.9h-1.5v-12.9h-3.1v10.7h-1.5v-12.2h4.6v-2.8h-5.2v-1.4H240.1z"/>
		<path d="M278,99.6v12.7l1.5-0.2v-15h1.2v14.8c0.5-0.1,1-0.2,1.5-0.3V99.6h1.2v4.9c1.9-0.4,3.6-0.9,4.9-1.5c-0.8-0.6-1.5-1.2-2-1.9c-0.4,0.4-0.8,0.8-1.3,1.2l-0.9-1.1c1.5-1.1,2.7-2.5,3.7-4.3l1.4,0.3c-0.3,0.5-0.5,0.9-0.8,1.4h5.5v1.2c-0.6,1.2-1.5,2.3-2.8,3.2c1.3,0.5,2.8,1,4.5,1.3l-0.5,1.4c-2.2-0.4-4-1-5.5-1.7c-1.5,0.8-3.4,1.5-5.6,2l-0.6-1.2v9.4h-1.2V113c-1.6,0.3-3.3,0.6-5.3,0.8l-0.6-1.3c0.2-0.1,0.4-0.2,0.4-0.4V99.6H278z M289,106.6v-1.5h1.5v1.5h4.2v1.4h-4.2v1.7h3.7v1.4h-3.7v1.7h4.9v1.3h-4.9v2.3H289v-2.3h-4.8v-1.3h4.8v-1.7h-3.9v-1.4h3.9V108h-4.2v-1.4H289z M292.4,99.9h-4.8l-0.3,0.3c0.6,0.8,1.4,1.5,2.5,2.1C291,101.6,291.8,100.8,292.4,99.9z"/>
		<path d="M342,96.9c2.7,3,5.8,5.4,9.3,7.1l-0.8,1.5c-3.5-1.8-6.5-4.3-9-7.2c-2.3,2.8-5.3,5.2-9.1,7.3l-0.8-1.5c3.7-1.9,6.9-4.3,9.4-7.2H342z M350,107.7v1.5h-10c-1,2-2.3,3.7-3.7,5.2c3.5-0.2,6.8-0.5,9.9-0.9c-0.7-0.9-1.5-1.9-2.4-2.9l1.2-0.8c1.9,2.2,3.4,4,4.5,5.6l-1.3,0.9c-0.4-0.6-0.7-1.1-1.2-1.7c-3.3,0.5-7.5,1-12.6,1.3l-0.4-1.3c0.4-0.1,0.6-0.2,0.8-0.4c1.4-1.6,2.5-3.2,3.4-4.9h-5.3v-1.5H350z M346.7,103.5v1.4h-10.4v-1.4H346.7z"/>
		<polygon fill="#2484C6" points="236.3,42.9 241.4,47.8 289.7,47.8 260.5,20.2"/>
		<polygon fill="#00B3F0" points="252.1,0 221.4,28.9 227.3,34.4 252.1,11.1 291.1,47.8 302.8,47.8"/>
		<polygon fill="#00AE9D" points="220.8,29.6 201.4,47.8 213.2,47.8 226.6,35.1"/>
		<polygon fill="#1268B3" points="231.2,47.8 240.1,47.8 235.7,43.6"/>
		<polygon fill="#00B3F0" points="227.3,35.7 214.5,47.8 229.9,47.8 235,42.9"/>
		<polygon fill="#98CB4F" points="214.6,23.8 189.2,47.8 200.1,47.8 220.1,28.9"/>
		<polygon fill="#9DDCF9" points="235.7,42.3 259.8,19.6 252.1,12.3 228,35.1"/>
  </symbol>
  <symbol id="as-mountain" viewBox="0 0 113.6 47.8">
    <polygon fill="#2484C6" points="47.1,42.9 52.2,47.8 100.5,47.8 71.3,20.2"/>
    <polygon fill="#00B3F0" points="62.9,0 32.2,28.9 38.1,34.4 62.9,11.1 101.9,47.8 113.6,47.8"/>
    <polygon fill="#00AE9D" points="31.6,29.6 12.2,47.8 24,47.8 37.4,35.1"/>
    <polygon fill="#1268B3" points="42,47.8 50.9,47.8 46.5,43.6"/>
    <polygon fill="#00B3F0" points="38.1,35.7 25.3,47.8 40.7,47.8 45.8,42.9"/>
    <polygon fill="#98CB4F" points="25.5,23.8 0,47.8 10.9,47.8 30.9,28.9"/>
    <polygon fill="#9DDCF9" points="46.5,42.3 70.6,19.6 62.9,12.3 38.8,35.1"/>
  </symbol>
  <symbol id="edit" viewBox="0 0 128 128">
    <g transform="scale(0.125, 0.125)"><path d="M960.24 195.093c-7.045 25.162-13.3 48.539-30.685 62.625-152.125 123.258-274.058 276.3-412.026 413.431-3.627 3.608-7.963 6.79-10.664 11.005C448.23 773.604 345.66 785.267 255.894 819.69c-19.272 7.387-49.419-26.959-43.637-47.365 16.292-57.476 32.242-115.064 49.761-172.168 2.966-9.666 12.217-18.029 19.995-25.503 131.218-126.012 263.141-251.292 393.701-377.98 31.14-30.215 58.129-64.747 86.613-97.659 38.456-44.434 92.217-48.013 134.119-6.808 25.227 24.803 55.885 46.376 61.678 85.48 0.753 5.067 1.563 10.123 2.346 15.182C962.381 194.016 958.326 193.946 960.24 195.093zM721.565 237.124C594.361 364.575 467.393 491.786 343.14 616.279c21.402 21.686 45.09 45.688 65.777 66.644 127.033-124.28 255.2-249.665 382.735-374.434C765.676 282.037 742.021 257.954 721.565 237.124zM751.953 183.262c31.601 30.267 59.139 56.644 91.666 87.801 5.813-7.922 11.445-17.709 19.042-25.595 54.863-56.933 54.983-56.809-2.798-111.522-1.236-1.175-2.364-2.475-3.632-3.613-15.979-14.337-32.187-14.5-47.97-0.005C790.05 147.045 772.219 164.171 751.953 183.262zM281.031 750.936c29.28-11.791 52.376-21.089 72.131-29.043-15.174-17.848-29.055-34.176-45.392-53.396C298.67 696.539 290.938 720.387 281.031 750.936zM464.602 959.783c-84.649 0-169.299 0.129-253.948-0.055C164.3 959.626 123.349 947.093 92.25 909.7c-20.506-24.654-26.319-53.31-26.365-83.719-0.255-168.444-0.916-336.896 0.196-505.335 0.591-90.427 56.421-144.32 146.989-144.846 91.49-0.531 182.985-0.018 274.474-0.201 20.044-0.037 39.148 1.542 41.708 26.855 1.875 18.522-13.274 27.868-42.991 27.891-88.919 0.075-177.848-0.133-266.776 0.085-63.603 0.158-99.734 36.669-99.753 100.365-0.06 162.45-0.075 324.903-0.035 487.354 0.01 50.26 33.871 86.142 84.609 86.331 173.573 0.657 347.151 0.527 520.724 0.116 41.066-0.096 67.666-29.396 67.848-73.861 0.454-111.143 0.216-222.289 0.386-333.438 0.015-8.486-1.965-19.188 2.284-24.958 7.151-9.717 19.358-23.275 27.953-22.286 8.985 1.033 16.895 16.867 23.842 27.193 2.397 3.558 0.548 10.007 0.548 15.137 0.01 110.302 0.154 220.605-0.041 330.907-0.16 92.874-43.949 136.383-136.985 136.483C628.777 959.857 546.689 959.792 464.602 959.783z"/></g>
  </symbol>
  <symbol id="up" viewBox="0 0 200 200">
    <g transform="scale(0.1953125, 0.1953125)"><path d="M1020.909104 746.367819c0 8.080026-3.107781 16.213263-9.272177 22.378683-12.431124 12.379958-32.478715 12.379958-44.861744 0l-453.53033-452.495768L59.712475 768.746502c-12.432147 12.379958-32.479739 12.379958-44.86072 0-12.432147-12.383028-12.432147-32.43062 0-44.757367l475.962226-474.875474c12.379958-12.380982 32.481785-12.380982 44.859697 0L1011.636926 723.989135C1017.801323 730.153532 1020.909104 738.234581 1020.909104 746.367819z"/></g>
  </symbol>
  <symbol id="download" viewBox="0 0 200 200">
    <g transform="scale(0.1953125, 0.1953125)"><path d="M933.561733 272.788873c0-16.470113-13.893428-29.833469-31.008224-29.833469L654.36901 242.955404c-17.159822 0-31.008224 13.363356-31.008224 29.833469 0 16.493649 13.848403 29.857005 31.008224 29.857005L871.502305 302.645878l0 596.686774-723.815173 0L147.687132 302.645878l217.133296 0c17.159822 0 31.008224-13.363356 31.008224-29.857005 0-16.470113-13.848403-29.833469-31.008224-29.833469L116.634906 242.955404c-17.114796 0-31.007201 13.363356-31.007201 29.833469 0 1.874697 0.201591 3.701299 0.544399 5.478781-0.344854 1.441838-0.544399 2.936889-0.544399 4.480035l0 656.351666c0 10.994402 9.247618 19.896142 20.701484 19.896142 1.596358 0 3.14462-0.192382 4.637624-0.520863 1.839905 0.326435 3.729951 0.520863 5.669116 0.520863l785.918603 0c17.114796 0 31.008224-13.364379 31.008224-29.834492l0-636.475989c0-3.491521-0.656963-6.827499-1.804089-9.942443C932.904771 279.626605 933.561733 276.28551 933.561733 272.788873zM356.954273 582.230528c-12.097526 11.661597-12.097526 30.523177 0 42.185798l126.234029 121.400954c1.231037 1.969864 2.696412 3.843538 4.463662 5.544273 6.057973 5.819542 14.072507 8.579399 22.007223 8.339946 8.209986 0.209778 16.490579-2.672876 22.75219-8.708336 2.424212-2.323928 4.342912-4.944616 5.798053-7.733125l117.90534-113.415073c11.639085-11.180644 11.639085-29.326932 0-40.508599-11.639085-11.177574-30.500665-11.177574-42.091654 0l-73.423243 70.605058L540.599873 93.790106c0-16.46909-13.893428-29.833469-31.008224-29.833469-17.111726 0-31.003108 13.364379-31.003108 29.833469l0 563.237965-77.748758-74.797543C388.699278 570.567907 369.055892 570.567907 356.954273 582.230528z"/></g>
  </symbol>
  <symbol id="share" viewBox="0 0 200 200">
    <g transform="scale(0.1953125, 0.1953125)"><path d="M887.222335 87.853907 584.532455 87.853907l0 72.508407 251.420193 0L330.761728 665.554258l51.223638 51.268664 505.236969-505.191944L887.222335 463.076754l72.486918 0L959.709253 160.362314C959.709253 120.345925 927.263283 87.853907 887.222335 87.853907L887.222335 87.853907 887.222335 87.853907zM887.222335 863.636662 136.821667 863.636662 136.821667 160.362314l302.645878 0L439.467545 87.853907 136.821667 87.853907c-40.08495 0-72.53092 32.493042-72.53092 72.508407l0 703.274348c0 40.062438 32.44597 72.509431 72.53092 72.509431l750.401692 0c40.040948 0 72.486918-32.446993 72.486918-72.509431L959.710276 608.072079l-72.486918 0L887.223359 863.636662 887.222335 863.636662 887.222335 863.636662z"/></g>
  </symbol>
</svg>